<svg height="512pt" viewBox="0 -12 512 512" width="512pt" xmlns="http://www.w3.org/2000/svg"><path d="m184.351562 9.253906h137.296876v78.746094h-137.296876zm0 0" fill="#76ffd9"/><path d="m184.351562 63.90625h137.296876v24.089844h-137.296876zm0 0" fill="#5de0bf"/><path d="m184.351562 88h137.296876v29.941406h-137.296876zm0 0" fill="#fff"/><path d="m95.429688 272.855469c0 22.714843-18.414063 41.132812-41.132813 41.132812-22.714844 0-41.132813-18.417969-41.132813-41.132812 0-22.71875 18.417969-41.132813 41.132813-41.132813 22.71875 0 41.132813 18.414063 41.132813 41.132813zm0 0" fill="#ffc843"/><path d="m492.832031 272.855469c0 22.714843-18.414062 41.132812-41.132812 41.132812-22.714844 0-41.128907-18.417969-41.128907-41.132812 0-22.71875 18.414063-41.132813 41.128907-41.132813 22.71875 0 41.132812 18.414063 41.132812 41.132813zm0 0" fill="#ffc843"/><path d="m502.746094 421.429688c0 31.6875-25.6875 57.375-57.375 57.375s-57.375-25.6875-57.375-57.375 25.6875-57.375 57.375-57.375 57.375 25.6875 57.375 57.375zm0 0" fill="#76ffd9"/><path d="m253 221.484375 51.363281 51.367187-51.363281 51.367188-51.367188-51.367188zm0 0" fill="#76ffd9"/><path d="m95.429688 272.863281c0 22.710938-18.417969 41.117188-41.132813 41.117188-22.710937 0-41.132813-18.40625-41.132813-41.117188 0-5.578125 1.113282-10.882812 3.109376-15.730469 6.179687 14.902344 20.875 25.390626 38.023437 25.390626s31.84375-10.488282 38.023437-25.390626c2 4.847657 3.109376 10.152344 3.109376 15.730469zm0 0" fill="#ffb400"/><path d="m492.828125 272.863281c0 22.710938-18.40625 41.117188-41.132813 41.117188-22.710937 0-41.132812-18.40625-41.132812-41.117188 0-5.578125 1.113281-10.882812 3.109375-15.730469 6.179687 14.902344 20.875 25.390626 38.023437 25.390626 17.148438 0 31.84375-10.488282 38.023438-25.390626 2 4.847657 3.109375 10.152344 3.109375 15.730469zm0 0" fill="#ffb400"/><path d="m304.363281 272.863281-51.359375 51.359375-51.375-51.359375 15.730469-15.734375 35.644531 35.632813 35.628906-35.632813zm0 0" fill="#5de0bf"/><path d="m274.828125 463.1875h-225.082031c-22.363282 0-40.492188-18.128906-40.492188-40.492188 0-22.363281 18.128906-40.492187 40.492188-40.492187h225.082031c22.363281 0 40.492187 18.128906 40.492187 40.492187-.003906 22.363282-18.128906 40.492188-40.492187 40.492188zm0 0" fill="#ffc843"/><path d="m502.746094 421.425781c0 31.695313-25.683594 57.382813-57.367188 57.382813-31.695312 0-57.382812-25.6875-57.382812-57.382813 0-5.710937.839844-11.238281 2.394531-16.445312 7.070313 23.664062 29.007813 40.925781 54.988281 40.925781 25.96875 0 47.90625-17.261719 54.976563-40.925781 1.554687 5.207031 2.390625 10.734375 2.390625 16.445312zm0 0" fill="#5de0bf"/><path d="m315.316406 422.699219c0 11.175781-4.527344 21.292969-11.855468 28.621093-7.328126 7.328126-17.457032 11.871094-28.636719 11.871094h-225.078125c-22.371094 0-40.492188-18.136718-40.492188-40.492187 0-5.847657 1.246094-11.414063 3.480469-16.445313 6.300781 14.164063 20.503906 24.03125 37.011719 24.03125h225.082031c11.175781 0 21.304687-4.527344 28.636719-11.855468 3.488281-3.492188 6.339844-7.613282 8.375-12.175782 2.234375 5.03125 3.476562 10.597656 3.476562 16.445313zm0 0" fill="#ffa816"/><g fill="#00c395"><path d="m290.0625 52.199219v-7.148438c0-5.109375-4.144531-9.253906-9.253906-9.253906s-9.25 4.144531-9.25 9.253906v7.148438c0 5.113281 4.140625 9.253906 9.25 9.253906s9.253906-4.140625 9.253906-9.253906zm0 0"/><path d="m243.746094 45.050781v7.148438c0 5.113281 4.144531 9.253906 9.253906 9.253906s9.25-4.140625 9.25-9.253906v-7.148438c0-5.109375-4.140625-9.253906-9.25-9.253906s-9.253906 4.140625-9.253906 9.253906zm0 0"/><path d="m215.933594 45.050781v7.148438c0 5.113281 4.144531 9.253906 9.253906 9.253906s9.253906-4.140625 9.253906-9.253906v-7.148438c0-5.109375-4.144531-9.253906-9.253906-9.253906s-9.253906 4.140625-9.253906 9.253906zm0 0"/></g><path d="m445.371094 354.800781c-33.597656 0-61.449219 25.003907-65.96875 57.375h-55.960938c-4.839844-22.390625-24.792968-39.226562-48.613281-39.226562h-12.574219v-44.894531l45.945313-45.945313h93.980469c4.359374 23.375 24.898437 41.128906 49.519531 41.128906 11.589843 0 22.90625-4.03125 31.867187-11.351562 3.957032-3.234375 4.542969-9.0625 1.308594-13.019531-3.230469-3.960938-9.0625-4.546876-13.019531-1.3125-5.746094 4.699218-12.714844 7.179687-20.15625 7.179687-17.578125 0-31.878907-14.300781-31.878907-31.878906s14.300782-31.882813 31.878907-31.882813c17.582031 0 31.882812 14.304688 31.882812 31.882813 0 5.109375 4.140625 9.25 9.25 9.25 5.113281 0 9.253907-4.140625 9.253907-9.25 0-24.699219-17.867188-45.289063-41.347657-49.558594-2.351562-26.667969-24.800781-47.65625-52.066406-47.65625h-146.417969v-48.449219h59.394532c5.109374 0 9.25-4.140625 9.25-9.253906v-108.683594c0-5.113281-4.140626-9.253906-9.25-9.253906h-48.992188c-5.109375 0-9.253906 4.140625-9.253906 9.253906 0 5.109375 4.144531 9.25 9.253906 9.25h39.738281v90.183594h-118.789062v-90.179688h46.355469c5.113281 0 9.253906-4.144531 9.253906-9.253906s-4.144532-9.253906-9.253906-9.253906h-55.609376c-5.109374 0-9.25 4.144531-9.25 9.253906v108.6875c0 5.109375 4.140626 9.25 9.25 9.25h59.394532v48.453125h-146.417969c-27.269531 0-49.714844 20.984375-52.066406 47.65625-23.484375 4.269531-41.351563 24.859375-41.351563 49.554688 0 27.785156 22.605469 50.386719 50.386719 50.386719 24.621094 0 45.160156-17.757813 49.519531-41.132813h32.921875c5.109375 0 9.253907-4.140625 9.253907-9.253906 0-5.109375-4.144532-9.25-9.253907-9.25h-32.921875c-3.777344-20.273438-19.726562-36.308594-39.953125-40.210938 2.222657-16.488281 16.378907-29.242187 33.464844-29.242187h311.34375c17.085937 0 31.242187 12.753906 33.464844 29.242187-20.230469 3.902344-36.175781 19.9375-39.957031 40.210938h-93.980469l-48.65625-48.660157c-1.738281-1.734374-4.089844-2.707031-6.546875-2.707031-2.453125 0-4.804688.972657-6.542969 2.707031l-48.652344 48.660157h-28.160156c-5.113281 0-9.253906 4.140625-9.253906 9.25 0 5.113281 4.144531 9.253906 9.253906 9.253906h28.160156l45.945313 45.945313v44.898437h-142.582032c-5.109374 0-9.25 4.140625-9.25 9.25s4.140626 9.253906 9.25 9.253906h173.660157c17.226562 0 31.238281 14.011719 31.238281 31.238281 0 17.222657-14.011719 31.238282-31.238281 31.238282h-44.117188c-5.109375 0-9.253906 4.140625-9.253906 9.25 0 5.113281 4.144531 9.253906 9.253906 9.253906h44.117188c24.710937 0 45.261719-18.113281 49.097656-41.753906h55.480469c4.519531 32.371094 32.375 57.371094 65.96875 57.371094 36.738281 0 66.628906-29.886719 66.628906-66.625 0-36.738282-29.890625-66.628907-66.628906-66.628907zm-359.195313-81.945312c0 17.578125-14.300781 31.878906-31.878906 31.878906s-31.878906-14.300781-31.878906-31.878906 14.300781-31.878907 31.878906-31.878907 31.878906 14.300782 31.878906 31.878907zm128.542969 0 38.277344-38.28125 38.28125 38.28125-38.28125 38.28125zm230.652344 196.695312c-26.53125 0-48.121094-21.585937-48.121094-48.121093 0-26.535157 21.589844-48.121094 48.121094-48.121094 26.535156 0 48.121094 21.585937 48.121094 48.121094 0 26.535156-21.585938 48.121093-48.121094 48.121093zm0 0" fill="#434c54"/><path d="m195.546875 453.933594h-145.800781c-17.226563 0-31.238282-14.011719-31.238282-31.238282 0-17.226562 14.011719-31.238281 31.238282-31.238281h16.257812c5.113282 0 9.253906-4.140625 9.253906-9.253906 0-5.109375-4.144531-9.25-9.253906-9.25h-16.257812c-27.429688-.003906-49.746094 22.3125-49.746094 49.742187 0 27.429688 22.316406 49.742188 49.746094 49.742188h145.800781c5.109375 0 9.253906-4.140625 9.253906-9.25 0-5.113281-4.144531-9.253906-9.253906-9.253906zm0 0" fill="#434c54"/><path d="m460.601562 401.539062-22.195312 22.199219-8.851562-8.851562c-3.613282-3.613281-9.472657-3.613281-13.085938 0s-3.613281 9.472656 0 13.085937l15.394531 15.394532c1.734375 1.734374 4.089844 2.710937 6.542969 2.710937s4.808594-.976563 6.542969-2.710937l28.742187-28.742188c3.613282-3.613281 3.613282-9.472656 0-13.085938-3.617187-3.613281-9.476562-3.613281-13.089844 0zm0 0" fill="#00c395"/><path d="m62.148438 421.429688c0 5.109374 4.140624 9.253906 9.25 9.253906h181.769531c5.113281 0 9.253906-4.144532 9.253906-9.253906 0-5.109376-4.144531-9.25-9.253906-9.25h-181.765625c-5.113282-.003907-9.253906 4.140624-9.253906 9.25zm0 0" fill="#ff8025"/></svg>